<svg width="100" height="100" viewBox="0 0 100 100" fill="none" xmlns="http://www.w3.org/2000/svg">
<rect width="100" height="100" rx="15" fill="#1E1014"/>
<path fill-rule="evenodd" clip-rule="evenodd" d="M27.8083 32.1917H43.6984C41.7023 34.8491 40.1419 37.8525 39.1232 41.0958H27.8083C22.8907 41.0958 18.9042 45.0823 18.9042 50C18.9042 54.9176 22.8907 58.9041 27.8083 58.9041H39.1232C40.1418 62.1474 41.7022 65.1508 43.6983 67.8083H27.8083C17.9731 67.8083 10 59.8352 10 50C10 40.1647 17.9731 32.1917 27.8083 32.1917Z" fill="#FFFCFF"/>
<path fill-rule="evenodd" clip-rule="evenodd" d="M67.4429 72.5573C79.901 72.5573 90.0002 62.4581 90.0002 50.0001C90.0002 37.5421 79.901 27.4429 67.4429 27.4429C54.9849 27.4429 44.8857 37.5421 44.8857 50.0001C44.8857 62.4581 54.9849 72.5573 67.4429 72.5573ZM61.5328 42.8767H68.6562C72.5903 42.8767 75.7795 46.066 75.7795 50.0001C75.7795 53.9342 72.5903 57.1234 68.6562 57.1234H61.5328V42.8767ZM54.4095 64.2467V35.7534H68.6562C76.5244 35.7534 82.9028 42.1319 82.9028 50.0001C82.9028 57.8683 76.5244 64.2467 68.6562 64.2467H54.4095Z" fill="#FFC906"/>
</svg>
