<svg width="4915" height="950" viewBox="0 0 4915 950" fill="none" xmlns="http://www.w3.org/2000/svg">
<path fill-rule="evenodd" clip-rule="evenodd" d="M375 100H709.606C667.573 155.959 634.715 219.204 613.264 287.5H375C271.447 287.5 187.5 371.447 187.5 475C187.5 578.554 271.446 662.5 375 662.5H613.264C634.715 730.796 667.573 794.041 709.606 850H375C167.893 850 0 682.107 0 475C0 267.893 167.893 100 375 100Z" fill="#FFFCFF"/>
<path fill-rule="evenodd" clip-rule="evenodd" d="M1209.65 950C1471.99 950 1684.65 737.335 1684.65 475C1684.65 212.665 1471.99 0 1209.65 0C947.316 0 734.651 212.665 734.651 475C734.651 737.335 947.316 950 1209.65 950ZM1085.2 325H1235.2C1318.04 325 1385.2 392.157 1385.2 475C1385.2 557.843 1318.04 625 1235.2 625H1085.2V325ZM935.202 775V175H1235.2C1400.89 175 1535.2 309.315 1535.2 475C1535.2 640.685 1400.89 775 1235.2 775H935.202Z" fill="#FFC906"/>
<path d="M2136.32 444.991C2101.79 444.991 2071.94 437.731 2046.77 423.21C2021.61 408.69 2002.24 388.684 1988.69 363.193C1975.14 337.379 1968.36 307.692 1968.36 274.134C1968.36 248.965 1972.4 226.055 1980.46 205.404C1988.53 184.43 1999.99 166.36 2014.83 151.194C2029.67 135.706 2047.42 123.928 2068.07 115.861C2088.72 107.471 2111.47 103.277 2136.32 103.277C2175.04 103.277 2207.14 111.989 2232.64 129.413C2258.13 146.515 2277 171.523 2289.27 204.436L2219.08 232.993C2209.73 214.923 2198.43 201.532 2185.2 192.819C2171.97 183.784 2155.68 179.267 2136.32 179.267C2119.21 179.267 2104.05 183.139 2090.82 190.883C2077.59 198.628 2067.1 209.599 2059.36 223.796C2051.94 237.994 2048.23 254.773 2048.23 274.134C2048.23 293.494 2051.94 310.274 2059.36 324.471C2067.1 338.669 2077.59 349.64 2090.82 357.384C2104.05 364.806 2119.21 368.517 2136.32 368.517C2155.68 368.517 2171.97 364.161 2185.2 355.448C2198.43 346.736 2209.73 333.345 2219.08 315.275L2289.27 343.832C2277 376.745 2258.13 401.914 2232.64 419.338C2207.14 436.44 2175.04 444.991 2136.32 444.991ZM2273.97 274.134C2273.97 248.965 2278.01 226.055 2286.07 205.404C2294.14 184.43 2305.6 166.36 2320.44 151.194C2335.6 135.706 2353.51 123.767 2374.16 115.377C2395.14 106.987 2418.05 102.793 2442.89 102.793C2467.74 102.793 2490.49 106.987 2511.14 115.377C2532.11 123.767 2550.18 135.706 2565.35 151.194C2580.52 166.36 2592.13 184.43 2600.2 205.404C2608.27 226.055 2612.3 248.965 2612.3 274.134C2612.3 298.98 2608.27 321.89 2600.2 342.864C2592.13 363.838 2580.52 382.069 2565.35 397.558C2550.18 412.724 2532.11 424.501 2511.14 432.891C2490.49 440.958 2467.74 444.991 2442.89 444.991C2418.05 444.991 2395.14 440.958 2374.16 432.891C2353.51 424.501 2335.6 412.724 2320.44 397.558C2305.6 382.069 2294.14 363.838 2286.07 342.864C2278.01 321.89 2273.97 298.98 2273.97 274.134ZM2353.84 274.134C2353.84 293.494 2357.55 310.274 2364.97 324.471C2372.71 338.347 2383.36 348.995 2396.91 356.416C2410.47 363.838 2425.79 367.549 2442.89 367.549C2460.64 367.549 2476.13 363.838 2489.36 356.416C2502.59 348.995 2513.08 338.185 2520.82 323.987C2528.57 309.79 2532.44 293.01 2532.44 273.65C2532.44 254.289 2528.57 237.671 2520.82 223.796C2513.08 209.921 2502.59 199.273 2489.36 191.851C2476.13 184.107 2460.64 180.235 2442.89 180.235C2425.79 180.235 2410.47 184.107 2396.91 191.851C2383.36 199.273 2372.71 210.083 2364.97 224.28C2357.55 238.155 2353.84 254.773 2353.84 274.134ZM2832.22 438.699L2663.3 205.888L2694.76 197.176V438.699H2616.35V109.085H2688.96L2855.46 339.96L2825.93 346.736V109.085H2904.34V438.699H2832.22ZM2979 320.599V244.609H3114.04V320.599H2979ZM3003.68 438.699H2925.27V109.085H3137.27V185.075H2974.16L3003.68 150.71V438.699ZM3221.85 438.699H3143.44V109.085H3221.85V438.699ZM3242.49 438.699V109.085H3360.11C3394.96 109.085 3424.8 115.7 3449.65 128.929C3474.5 141.836 3493.53 160.552 3506.76 185.075C3519.99 209.599 3526.61 239.123 3526.61 273.65C3526.61 308.499 3519.83 338.185 3506.28 362.709C3493.05 387.232 3474.01 406.109 3449.17 419.338C3424.32 432.245 3394.47 438.699 3359.62 438.699H3242.49ZM3320.9 395.138L3288.47 362.709H3354.3C3373.01 362.709 3389.15 359.805 3402.7 353.996C3416.58 347.866 3427.22 338.185 3434.65 324.955C3442.39 311.726 3446.26 294.624 3446.26 273.65C3446.26 252.999 3442.55 236.219 3435.13 223.312C3427.71 210.083 3417.06 200.402 3403.18 194.271C3389.63 188.141 3373.5 185.075 3354.78 185.075H3285.08L3320.9 163.294V395.138ZM3580.95 310.919V236.381H3717.44V310.919H3580.95ZM3579.5 183.623L3609.02 150.71V399.978L3577.08 363.677H3743.58V438.699H3530.61V109.085H3743.58V183.623H3579.5ZM3973.63 438.699L3804.71 205.888L3836.17 197.176V438.699H3757.76V109.085H3830.36L3996.86 339.96L3967.34 346.736V109.085H4045.75V438.699H3973.63ZM4142.18 438.699V141.514H4221.08V438.699H4142.18ZM4046.35 185.075V109.085H4317.88V185.075H4046.35ZM4396.81 438.699H4318.4V109.085H4396.81V438.699ZM4470.26 310.435H4617.4V383.037H4470.26V310.435ZM4394.75 438.699L4511.4 109.085H4594.17L4702.59 438.699H4623.69L4538.51 162.81H4567.06L4473.16 438.699H4394.75ZM4904.16 438.699H4699.91V109.085H4778.32V396.106L4756.54 362.709H4904.16V438.699Z" fill="#FFFCFF"/>
<path d="M1984.34 841.301V511.687H2101.95C2136.8 511.687 2166.65 518.302 2191.49 531.532C2216.34 544.439 2235.38 563.154 2248.61 587.677C2261.84 612.201 2268.45 641.726 2268.45 676.252C2268.45 711.101 2261.68 740.787 2248.12 765.311C2234.89 789.834 2215.86 808.711 2191.01 821.941C2166.16 834.848 2136.32 841.301 2101.47 841.301H1984.34ZM2062.75 797.74L2030.32 765.311H2096.14C2114.86 765.311 2130.99 762.407 2144.55 756.599C2158.42 750.468 2169.07 740.787 2176.49 727.558C2184.23 714.328 2188.11 697.226 2188.11 676.252C2188.11 655.601 2184.4 638.822 2176.97 625.915C2169.55 612.685 2158.9 603.005 2145.03 596.874C2131.48 590.743 2115.34 587.677 2096.63 587.677H2026.93L2062.75 565.897V797.74ZM2322.79 713.521V638.983H2459.29V713.521H2322.79ZM2321.34 586.225L2350.87 553.312V802.58L2318.92 766.279H2485.42V841.301H2272.46V511.687H2485.42V586.225H2321.34ZM2575.11 841.301V544.116H2654V841.301H2575.11ZM2479.28 587.677V511.687H2750.81V587.677H2479.28ZM2757.81 713.037H2904.95V785.64H2757.81V713.037ZM2682.3 841.301L2798.95 511.687H2881.72L2990.14 841.301H2911.24L2826.06 565.413H2854.61L2760.71 841.301H2682.3ZM3065.87 841.301H2987.46V511.687H3065.87V841.301ZM3290.76 841.301H3086.51V511.687H3164.92V798.708L3143.14 765.311H3290.76V841.301ZM3346.51 713.521V638.983H3483V713.521H3346.51ZM3345.05 586.225L3374.58 553.312V802.58L3342.63 766.279H3509.13V841.301H3296.17V511.687H3509.13V586.225H3345.05ZM3523.31 841.301V511.687H3645.29C3669.16 511.687 3690.62 516.366 3709.66 525.724C3728.7 534.758 3743.86 548.15 3755.16 565.897C3766.45 583.321 3772.1 604.457 3772.1 629.303C3772.1 654.472 3766.45 675.768 3755.16 693.193C3743.86 710.617 3728.7 723.847 3709.66 732.882C3690.62 741.917 3669.16 746.434 3645.29 746.434H3583.82V670.928H3640.93C3657.39 670.928 3669.97 667.379 3678.68 660.28C3687.72 653.181 3692.24 642.855 3692.24 629.303C3692.24 615.75 3687.72 605.425 3678.68 598.326C3669.97 591.227 3657.39 587.677 3640.93 587.677H3583.33L3601.72 570.737V841.301H3523.31ZM3689.82 841.301L3622.05 708.197H3707.72L3775.49 841.301H3689.82ZM3892.19 849.53C3872.51 849.53 3854.28 846.625 3837.5 840.817C3820.72 835.009 3805.72 826.458 3792.49 815.164C3779.58 803.871 3768.77 789.673 3760.06 772.571L3819.59 734.334C3828.63 748.209 3839.76 759.019 3852.99 766.763C3866.54 774.185 3881.06 777.895 3896.55 777.895C3909.46 777.895 3919.14 775.314 3925.59 770.151C3932.05 764.988 3935.27 758.212 3935.27 749.822C3935.27 744.66 3933.82 739.981 3930.92 735.786C3928.01 731.591 3922.53 727.719 3914.46 724.17C3906.39 720.298 3894.94 716.748 3880.09 713.521C3852.34 707.068 3830.4 699.001 3814.27 689.321C3798.13 679.64 3786.68 668.024 3779.9 654.472C3773.13 640.596 3769.74 624.947 3769.74 607.522C3769.74 588.161 3774.58 570.737 3784.26 555.248C3794.26 539.437 3808.46 527.014 3826.85 517.979C3845.57 508.622 3867.51 503.943 3892.68 503.943C3921.4 503.943 3945.76 509.59 3965.76 520.883C3985.77 532.177 4001.42 546.859 4012.71 564.929L3953.18 607.522C3945.11 596.874 3934.95 589.291 3922.69 584.773C3910.75 580.256 3898.97 577.997 3887.35 577.997C3875.42 577.997 3865.9 580.256 3858.8 584.773C3852.02 589.291 3848.63 595.744 3848.63 604.134C3848.63 611.878 3852.18 618.332 3859.28 623.495C3866.7 628.335 3881.06 633.175 3902.36 638.015C3929.46 644.469 3951.41 652.374 3968.18 661.732C3984.96 671.089 3997.23 682.706 4004.97 696.581C4013.04 710.133 4017.07 726.751 4017.07 746.434C4017.07 766.44 4011.91 784.188 4001.58 799.676C3991.58 815.164 3977.22 827.426 3958.5 836.461C3940.11 845.173 3918.01 849.53 3892.19 849.53Z" fill="#FFC906"/>
</svg>
