<svg width="4915" height="950" viewBox="0 0 4915 950" fill="none" xmlns="http://www.w3.org/2000/svg">
<path fill-rule="evenodd" clip-rule="evenodd" d="M375 100H709.606C667.573 155.959 634.715 219.204 613.264 287.5H375C271.447 287.5 187.5 371.447 187.5 475C187.5 578.554 271.446 662.5 375 662.5H613.264C634.715 730.796 667.573 794.041 709.606 850H375C167.893 850 0 682.107 0 475C0 267.893 167.893 100 375 100Z" fill="#1E1014"/>
<path fill-rule="evenodd" clip-rule="evenodd" d="M1209.61 950C1471.94 950 1684.61 737.335 1684.61 475C1684.61 212.665 1471.94 0 1209.61 0C947.27 0 734.606 212.665 734.606 475C734.606 737.335 947.27 950 1209.61 950ZM1085.16 325H1235.16C1318 325 1385.16 392.157 1385.16 475C1385.16 557.843 1318 625 1235.16 625H1085.16V325ZM935.156 775V175H1235.16C1400.84 175 1535.16 309.315 1535.16 475C1535.16 640.685 1400.84 775 1235.16 775H935.156Z" fill="#FFC906"/>
<path d="M2136.27 444.991C2101.74 444.991 2071.9 437.731 2046.73 423.21C2021.56 408.69 2002.2 388.684 1988.65 363.192C1975.09 337.378 1968.32 307.692 1968.32 274.134C1968.32 248.965 1972.35 226.055 1980.42 205.404C1988.49 184.43 1999.94 166.36 2014.78 151.194C2029.63 135.705 2047.37 123.928 2068.03 115.861C2088.68 107.471 2111.43 103.276 2136.27 103.276C2174.99 103.276 2207.1 111.989 2232.59 129.413C2258.08 146.515 2276.96 171.522 2289.22 204.435L2219.04 232.992C2209.68 214.922 2198.39 201.531 2185.16 192.819C2171.93 183.784 2155.63 179.267 2136.27 179.267C2119.17 179.267 2104 183.139 2090.77 190.883C2077.54 198.627 2067.06 209.598 2059.31 223.796C2051.89 237.994 2048.18 254.773 2048.18 274.134C2048.18 293.494 2051.89 310.273 2059.31 324.471C2067.06 338.669 2077.54 349.64 2090.77 357.384C2104 364.806 2119.17 368.517 2136.27 368.517C2155.63 368.517 2171.93 364.16 2185.16 355.448C2198.39 346.736 2209.68 333.345 2219.04 315.275L2289.22 343.832C2276.96 376.745 2258.08 401.914 2232.59 419.338C2207.1 436.44 2174.99 444.991 2136.27 444.991ZM2273.93 274.134C2273.93 248.965 2277.96 226.055 2286.03 205.404C2294.1 184.43 2305.55 166.36 2320.39 151.194C2335.56 135.705 2353.47 123.766 2374.12 115.377C2395.09 106.987 2418 102.792 2442.85 102.792C2467.7 102.792 2490.44 106.987 2511.1 115.377C2532.07 123.766 2550.14 135.705 2565.31 151.194C2580.47 166.36 2592.09 184.43 2600.15 205.404C2608.22 226.055 2612.25 248.965 2612.25 274.134C2612.25 298.98 2608.22 321.89 2600.15 342.864C2592.09 363.838 2580.47 382.069 2565.31 397.557C2550.14 412.723 2532.07 424.501 2511.1 432.891C2490.44 440.957 2467.7 444.991 2442.85 444.991C2418 444.991 2395.09 440.957 2374.12 432.891C2353.47 424.501 2335.56 412.723 2320.39 397.557C2305.55 382.069 2294.1 363.838 2286.03 342.864C2277.96 321.89 2273.93 298.98 2273.93 274.134ZM2353.79 274.134C2353.79 293.494 2357.5 310.273 2364.92 324.471C2372.67 338.346 2383.32 348.995 2396.87 356.416C2410.42 363.838 2425.75 367.549 2442.85 367.549C2460.6 367.549 2476.08 363.838 2489.31 356.416C2502.54 348.995 2513.03 338.185 2520.78 323.987C2528.52 309.789 2532.39 293.01 2532.39 273.65C2532.39 254.289 2528.52 237.671 2520.78 223.796C2513.03 209.921 2502.54 199.273 2489.31 191.851C2476.08 184.107 2460.6 180.235 2442.85 180.235C2425.75 180.235 2410.42 184.107 2396.87 191.851C2383.32 199.273 2372.67 210.082 2364.92 224.28C2357.5 238.155 2353.79 254.773 2353.79 274.134ZM2832.18 438.699L2663.26 205.888L2694.72 197.175V438.699H2616.31V109.085H2688.91L2855.41 339.96L2825.89 346.736V109.085H2904.3V438.699H2832.18ZM2978.95 320.599V244.609H3113.99V320.599H2978.95ZM3003.64 438.699H2925.23V109.085H3137.23V185.075H2974.11L3003.64 150.71V438.699ZM3221.8 438.699H3143.39V109.085H3221.8V438.699ZM3242.45 438.699V109.085H3360.06C3394.91 109.085 3424.76 115.699 3449.6 128.929C3474.45 141.836 3493.49 160.551 3506.72 185.075C3519.95 209.598 3526.56 239.123 3526.56 273.65C3526.56 308.499 3519.79 338.185 3506.23 362.708C3493 387.232 3473.97 406.108 3449.12 419.338C3424.27 432.245 3394.43 438.699 3359.58 438.699H3242.45ZM3320.86 395.137L3288.43 362.708H3354.25C3372.97 362.708 3389.1 359.804 3402.65 353.996C3416.53 347.865 3427.18 338.185 3434.6 324.955C3442.34 311.725 3446.22 294.624 3446.22 273.65C3446.22 252.998 3442.51 236.219 3435.08 223.312C3427.66 210.082 3417.01 200.402 3403.14 194.271C3389.59 188.14 3373.45 185.075 3354.74 185.075H3285.04L3320.86 163.294V395.137ZM3580.9 310.919V236.38H3717.4V310.919H3580.9ZM3579.45 183.623L3608.98 150.71V399.978L3577.03 363.676H3743.53V438.699H3530.57V109.085H3743.53V183.623H3579.45ZM3973.58 438.699L3804.66 205.888L3836.12 197.175V438.699H3757.71V109.085H3830.32L3996.82 339.96L3967.29 346.736V109.085H4045.7V438.699H3973.58ZM4142.14 438.699V141.514H4221.03V438.699H4142.14ZM4046.3 185.075V109.085H4317.84V185.075H4046.3ZM4396.77 438.699H4318.36V109.085H4396.77V438.699ZM4470.21 310.435H4617.35V383.037H4470.21V310.435ZM4394.71 438.699L4511.36 109.085H4594.12L4702.54 438.699H4623.65L4538.46 162.81H4567.02L4473.12 438.699H4394.71ZM4904.11 438.699H4699.86V109.085H4778.27V396.105L4756.49 362.708H4904.11V438.699Z" fill="#1E1014"/>
<path d="M1984.29 841.301V511.687H2101.91C2136.76 511.687 2166.6 518.301 2191.45 531.531C2216.29 544.438 2235.33 563.154 2248.56 587.677C2261.79 612.2 2268.41 641.725 2268.41 676.252C2268.41 711.101 2261.63 740.787 2248.08 765.31C2234.85 789.834 2215.81 808.71 2190.96 821.94C2166.12 834.847 2136.27 841.301 2101.42 841.301H1984.29ZM2062.7 797.739L2030.27 765.31H2096.1C2114.81 765.31 2130.95 762.406 2144.5 756.598C2158.37 750.467 2169.02 740.787 2176.44 727.557C2184.19 714.328 2188.06 697.226 2188.06 676.252C2188.06 655.6 2184.35 638.821 2176.93 625.914C2169.51 612.684 2158.86 603.004 2144.98 596.873C2131.43 590.742 2115.3 587.677 2096.58 587.677H2026.88L2062.7 565.896V797.739ZM2322.75 713.521V638.983H2459.24V713.521H2322.75ZM2321.3 586.225L2350.82 553.312V802.58L2318.88 766.278H2485.38V841.301H2272.41V511.687H2485.38V586.225H2321.3ZM2575.06 841.301V544.116H2653.96V841.301H2575.06ZM2479.23 587.677V511.687H2750.76V587.677H2479.23ZM2757.77 713.037H2904.91V785.639H2757.77V713.037ZM2682.26 841.301L2798.91 511.687H2881.67L2990.09 841.301H2911.2L2826.01 565.412H2854.57L2760.67 841.301H2682.26ZM3065.82 841.301H2987.41V511.687H3065.82V841.301ZM3290.72 841.301H3086.46V511.687H3164.87V798.707L3143.09 765.31H3290.72V841.301ZM3346.46 713.521V638.983H3482.95V713.521H3346.46ZM3345.01 586.225L3374.53 553.312V802.58L3342.59 766.278H3509.09V841.301H3296.12V511.687H3509.09V586.225H3345.01ZM3523.27 841.301V511.687H3645.24C3669.12 511.687 3690.58 516.365 3709.61 525.723C3728.65 534.758 3743.82 548.149 3755.11 565.896C3766.41 583.321 3772.05 604.456 3772.05 629.302C3772.05 654.471 3766.41 675.768 3755.11 693.192C3743.82 710.617 3728.65 723.846 3709.61 732.881C3690.58 741.916 3669.12 746.434 3645.24 746.434H3583.77V670.928H3640.88C3657.34 670.928 3669.93 667.378 3678.64 660.279C3687.67 653.18 3692.19 642.855 3692.19 629.302C3692.19 615.75 3687.67 605.424 3678.64 598.325C3669.93 591.226 3657.34 587.677 3640.88 587.677H3583.29L3601.68 570.736V841.301H3523.27ZM3689.77 841.301L3622.01 708.197H3707.68L3775.44 841.301H3689.77ZM3892.15 849.529C3872.47 849.529 3854.23 846.625 3837.46 840.817C3820.68 835.009 3805.67 826.458 3792.44 815.164C3779.53 803.87 3768.72 789.673 3760.01 772.571L3819.55 734.333C3828.58 748.209 3839.71 759.018 3852.94 766.762C3866.5 774.184 3881.02 777.895 3896.5 777.895C3909.41 777.895 3919.09 775.313 3925.55 770.151C3932 764.988 3935.23 758.212 3935.23 749.822C3935.23 744.659 3933.77 739.98 3930.87 735.786C3927.97 731.591 3922.48 727.719 3914.41 724.169C3906.35 720.297 3894.89 716.748 3880.05 713.521C3852.3 707.067 3830.36 699 3814.22 689.32C3798.09 679.64 3786.63 668.023 3779.86 654.471C3773.08 640.596 3769.69 624.946 3769.69 607.522C3769.69 588.161 3774.53 570.736 3784.21 555.248C3794.22 539.437 3808.41 527.014 3826.81 517.979C3845.52 508.621 3867.46 503.942 3892.63 503.942C3921.35 503.942 3945.71 509.589 3965.72 520.883C3985.73 532.177 4001.37 546.858 4012.67 564.928L3953.13 607.522C3945.07 596.873 3934.9 589.29 3922.64 584.773C3910.7 580.255 3898.92 577.997 3887.31 577.997C3875.37 577.997 3865.85 580.255 3858.75 584.773C3851.98 589.29 3848.59 595.744 3848.59 604.133C3848.59 611.878 3852.14 618.331 3859.24 623.494C3866.66 628.334 3881.02 633.174 3902.31 638.015C3929.42 644.468 3951.36 652.374 3968.14 661.731C3984.92 671.089 3997.18 682.705 4004.92 696.58C4012.99 710.133 4017.02 726.751 4017.02 746.434C4017.02 766.44 4011.86 784.187 4001.54 799.675C3991.53 815.164 3977.17 827.426 3958.46 836.461C3940.07 845.173 3917.96 849.529 3892.15 849.529Z" fill="#FFC906"/>
</svg>
