<svg width="5648" height="1550" viewBox="0 0 5648 1550" fill="none" xmlns="http://www.w3.org/2000/svg">
<path fill-rule="evenodd" clip-rule="evenodd" d="M675 400H1009.61C967.573 455.959 934.715 519.204 913.264 587.5H675C571.447 587.5 487.5 671.447 487.5 775C487.5 878.554 571.446 962.5 675 962.5H913.264C934.715 1030.8 967.573 1094.04 1009.61 1150H675C467.893 1150 300 982.107 300 775C300 567.893 467.893 400 675 400Z" fill="#FFFCFF"/>
<path fill-rule="evenodd" clip-rule="evenodd" d="M1509.65 1250C1771.99 1250 1984.65 1037.34 1984.65 775C1984.65 512.665 1771.99 300 1509.65 300C1247.32 300 1034.65 512.665 1034.65 775C1034.65 1037.34 1247.32 1250 1509.65 1250ZM1385.2 625H1535.2C1618.04 625 1685.2 692.157 1685.2 775C1685.2 857.843 1618.04 925 1535.2 925H1385.2V625ZM1235.2 1075V475H1535.2C1700.89 475 1835.2 609.315 1835.2 775C1835.2 940.685 1700.89 1075 1535.2 1075H1235.2Z" fill="#FFC906"/>
<path d="M2436.32 744.991C2401.79 744.991 2371.94 737.731 2346.77 723.21C2321.61 708.69 2302.24 688.684 2288.69 663.193C2275.14 637.379 2268.36 607.692 2268.36 574.134C2268.36 548.965 2272.4 526.055 2280.46 505.404C2288.53 484.43 2299.99 466.36 2314.83 451.194C2329.67 435.706 2347.42 423.928 2368.07 415.861C2388.72 407.471 2411.47 403.277 2436.32 403.277C2475.04 403.277 2507.14 411.989 2532.64 429.413C2558.13 446.515 2577 471.523 2589.27 504.436L2519.08 532.993C2509.73 514.923 2498.43 501.532 2485.2 492.819C2471.97 483.784 2455.68 479.267 2436.32 479.267C2419.21 479.267 2404.05 483.139 2390.82 490.883C2377.59 498.628 2367.1 509.599 2359.36 523.796C2351.94 537.994 2348.23 554.773 2348.23 574.134C2348.23 593.494 2351.94 610.274 2359.36 624.471C2367.1 638.669 2377.59 649.64 2390.82 657.384C2404.05 664.806 2419.21 668.517 2436.32 668.517C2455.68 668.517 2471.97 664.161 2485.2 655.448C2498.43 646.736 2509.73 633.345 2519.08 615.275L2589.27 643.832C2577 676.745 2558.13 701.914 2532.64 719.338C2507.14 736.44 2475.04 744.991 2436.32 744.991ZM2573.97 574.134C2573.97 548.965 2578.01 526.055 2586.07 505.404C2594.14 484.43 2605.6 466.36 2620.44 451.194C2635.6 435.706 2653.51 423.767 2674.16 415.377C2695.14 406.987 2718.05 402.793 2742.89 402.793C2767.74 402.793 2790.49 406.987 2811.14 415.377C2832.11 423.767 2850.18 435.706 2865.35 451.194C2880.52 466.36 2892.13 484.43 2900.2 505.404C2908.27 526.055 2912.3 548.965 2912.3 574.134C2912.3 598.98 2908.27 621.89 2900.2 642.864C2892.13 663.838 2880.52 682.069 2865.35 697.558C2850.18 712.724 2832.11 724.501 2811.14 732.891C2790.49 740.958 2767.74 744.991 2742.89 744.991C2718.05 744.991 2695.14 740.958 2674.16 732.891C2653.51 724.501 2635.6 712.724 2620.44 697.558C2605.6 682.069 2594.14 663.838 2586.07 642.864C2578.01 621.89 2573.97 598.98 2573.97 574.134ZM2653.84 574.134C2653.84 593.494 2657.55 610.274 2664.97 624.471C2672.71 638.347 2683.36 648.995 2696.91 656.416C2710.47 663.838 2725.79 667.549 2742.89 667.549C2760.64 667.549 2776.13 663.838 2789.36 656.416C2802.59 648.995 2813.08 638.185 2820.82 623.987C2828.57 609.79 2832.44 593.01 2832.44 573.65C2832.44 554.289 2828.57 537.671 2820.82 523.796C2813.08 509.921 2802.59 499.273 2789.36 491.851C2776.13 484.107 2760.64 480.235 2742.89 480.235C2725.79 480.235 2710.47 484.107 2696.91 491.851C2683.36 499.273 2672.71 510.083 2664.97 524.28C2657.55 538.155 2653.84 554.773 2653.84 574.134ZM3132.22 738.699L2963.3 505.888L2994.76 497.176V738.699H2916.35V409.085H2988.96L3155.46 639.96L3125.93 646.736V409.085H3204.34V738.699H3132.22ZM3279 620.599V544.609H3414.04V620.599H3279ZM3303.68 738.699H3225.27V409.085H3437.27V485.075H3274.16L3303.68 450.71V738.699ZM3521.85 738.699H3443.44V409.085H3521.85V738.699ZM3542.49 738.699V409.085H3660.11C3694.96 409.085 3724.8 415.7 3749.65 428.929C3774.5 441.836 3793.53 460.552 3806.76 485.075C3819.99 509.599 3826.61 539.123 3826.61 573.65C3826.61 608.499 3819.83 638.185 3806.28 662.709C3793.05 687.232 3774.01 706.109 3749.17 719.338C3724.32 732.245 3694.47 738.699 3659.62 738.699H3542.49ZM3620.9 695.138L3588.47 662.709H3654.3C3673.01 662.709 3689.15 659.805 3702.7 653.996C3716.58 647.866 3727.22 638.185 3734.65 624.955C3742.39 611.726 3746.26 594.624 3746.26 573.65C3746.26 552.999 3742.55 536.219 3735.13 523.312C3727.71 510.083 3717.06 500.402 3703.18 494.271C3689.63 488.141 3673.5 485.075 3654.78 485.075H3585.08L3620.9 463.294V695.138ZM3880.95 610.919V536.381H4017.44V610.919H3880.95ZM3879.5 483.623L3909.02 450.71V699.978L3877.08 663.677H4043.58V738.699H3830.61V409.085H4043.58V483.623H3879.5ZM4273.63 738.699L4104.71 505.888L4136.17 497.176V738.699H4057.76V409.085H4130.36L4296.86 639.96L4267.34 646.736V409.085H4345.75V738.699H4273.63ZM4442.18 738.699V441.514H4521.08V738.699H4442.18ZM4346.35 485.075V409.085H4617.88V485.075H4346.35ZM4696.81 738.699H4618.4V409.085H4696.81V738.699ZM4770.26 610.435H4917.4V683.037H4770.26V610.435ZM4694.75 738.699L4811.4 409.085H4894.17L5002.59 738.699H4923.69L4838.51 462.81H4867.06L4773.16 738.699H4694.75ZM5204.16 738.699H4999.91V409.085H5078.32V696.106L5056.54 662.709H5204.16V738.699Z" fill="#FFFCFF"/>
<path d="M2284.34 1141.3V811.687H2401.95C2436.8 811.687 2466.65 818.302 2491.49 831.532C2516.34 844.439 2535.38 863.154 2548.61 887.677C2561.84 912.201 2568.45 941.726 2568.45 976.252C2568.45 1011.1 2561.68 1040.79 2548.12 1065.31C2534.89 1089.83 2515.86 1108.71 2491.01 1121.94C2466.16 1134.85 2436.32 1141.3 2401.47 1141.3H2284.34ZM2362.75 1097.74L2330.32 1065.31H2396.14C2414.86 1065.31 2430.99 1062.41 2444.55 1056.6C2458.42 1050.47 2469.07 1040.79 2476.49 1027.56C2484.23 1014.33 2488.11 997.226 2488.11 976.252C2488.11 955.601 2484.4 938.822 2476.97 925.915C2469.55 912.685 2458.9 903.005 2445.03 896.874C2431.48 890.743 2415.34 887.677 2396.63 887.677H2326.93L2362.75 865.897V1097.74ZM2622.79 1013.52V938.983H2759.29V1013.52H2622.79ZM2621.34 886.225L2650.87 853.312V1102.58L2618.92 1066.28H2785.42V1141.3H2572.46V811.687H2785.42V886.225H2621.34ZM2875.11 1141.3V844.116H2954V1141.3H2875.11ZM2779.28 887.677V811.687H3050.81V887.677H2779.28ZM3057.81 1013.04H3204.95V1085.64H3057.81V1013.04ZM2982.3 1141.3L3098.95 811.687H3181.72L3290.14 1141.3H3211.24L3126.06 865.413H3154.61L3060.71 1141.3H2982.3ZM3365.87 1141.3H3287.46V811.687H3365.87V1141.3ZM3590.76 1141.3H3386.51V811.687H3464.92V1098.71L3443.14 1065.31H3590.76V1141.3ZM3646.51 1013.52V938.983H3783V1013.52H3646.51ZM3645.05 886.225L3674.58 853.312V1102.58L3642.63 1066.28H3809.13V1141.3H3596.17V811.687H3809.13V886.225H3645.05ZM3823.31 1141.3V811.687H3945.29C3969.16 811.687 3990.62 816.366 4009.66 825.724C4028.7 834.758 4043.86 848.15 4055.16 865.897C4066.45 883.321 4072.1 904.457 4072.1 929.303C4072.1 954.472 4066.45 975.768 4055.16 993.193C4043.86 1010.62 4028.7 1023.85 4009.66 1032.88C3990.62 1041.92 3969.16 1046.43 3945.29 1046.43H3883.82V970.928H3940.93C3957.39 970.928 3969.97 967.379 3978.68 960.28C3987.72 953.181 3992.24 942.855 3992.24 929.303C3992.24 915.75 3987.72 905.425 3978.68 898.326C3969.97 891.227 3957.39 887.677 3940.93 887.677H3883.33L3901.72 870.737V1141.3H3823.31ZM3989.82 1141.3L3922.05 1008.2H4007.72L4075.49 1141.3H3989.82ZM4192.19 1149.53C4172.51 1149.53 4154.28 1146.63 4137.5 1140.82C4120.72 1135.01 4105.72 1126.46 4092.49 1115.16C4079.58 1103.87 4068.77 1089.67 4060.06 1072.57L4119.59 1034.33C4128.63 1048.21 4139.76 1059.02 4152.99 1066.76C4166.54 1074.18 4181.06 1077.9 4196.55 1077.9C4209.46 1077.9 4219.14 1075.31 4225.59 1070.15C4232.05 1064.99 4235.27 1058.21 4235.27 1049.82C4235.27 1044.66 4233.82 1039.98 4230.92 1035.79C4228.01 1031.59 4222.53 1027.72 4214.46 1024.17C4206.39 1020.3 4194.94 1016.75 4180.09 1013.52C4152.34 1007.07 4130.4 999.001 4114.27 989.321C4098.13 979.64 4086.68 968.024 4079.9 954.472C4073.13 940.596 4069.74 924.947 4069.74 907.522C4069.74 888.161 4074.58 870.737 4084.26 855.248C4094.26 839.437 4108.46 827.014 4126.85 817.979C4145.57 808.622 4167.51 803.943 4192.68 803.943C4221.4 803.943 4245.76 809.59 4265.76 820.883C4285.77 832.177 4301.42 846.859 4312.71 864.929L4253.18 907.522C4245.11 896.874 4234.95 889.291 4222.69 884.773C4210.75 880.256 4198.97 877.997 4187.35 877.997C4175.42 877.997 4165.9 880.256 4158.8 884.773C4152.02 889.291 4148.63 895.744 4148.63 904.134C4148.63 911.878 4152.18 918.332 4159.28 923.495C4166.7 928.335 4181.06 933.175 4202.36 938.015C4229.46 944.469 4251.41 952.374 4268.18 961.732C4284.96 971.089 4297.23 982.706 4304.97 996.581C4313.04 1010.13 4317.07 1026.75 4317.07 1046.43C4317.07 1066.44 4311.91 1084.19 4301.58 1099.68C4291.58 1115.16 4277.22 1127.43 4258.5 1136.46C4240.11 1145.17 4218.01 1149.53 4192.19 1149.53Z" fill="#FFC906"/>
</svg>
