<svg width="5648" height="1550" viewBox="0 0 5648 1550" fill="none" xmlns="http://www.w3.org/2000/svg">
<path fill-rule="evenodd" clip-rule="evenodd" d="M675 400H1009.61C967.573 455.959 934.715 519.204 913.264 587.5H675C571.447 587.5 487.5 671.447 487.5 775C487.5 878.554 571.446 962.5 675 962.5H913.264C934.715 1030.8 967.573 1094.04 1009.61 1150H675C467.893 1150 300 982.107 300 775C300 567.893 467.893 400 675 400Z" fill="#1E1014"/>
<path fill-rule="evenodd" clip-rule="evenodd" d="M1509.61 1250C1771.94 1250 1984.61 1037.34 1984.61 775C1984.61 512.665 1771.94 300 1509.61 300C1247.27 300 1034.61 512.665 1034.61 775C1034.61 1037.34 1247.27 1250 1509.61 1250ZM1385.16 625H1535.16C1618 625 1685.16 692.157 1685.16 775C1685.16 857.843 1618 925 1535.16 925H1385.16V625ZM1235.16 1075V475H1535.16C1700.84 475 1835.16 609.315 1835.16 775C1835.16 940.685 1700.84 1075 1535.16 1075H1235.16Z" fill="#FFC906"/>
<path d="M2436.27 744.991C2401.74 744.991 2371.9 737.731 2346.73 723.21C2321.56 708.69 2302.2 688.684 2288.65 663.193C2275.09 637.378 2268.32 607.692 2268.32 574.134C2268.32 548.965 2272.35 526.055 2280.42 505.404C2288.49 484.43 2299.94 466.36 2314.78 451.194C2329.63 435.706 2347.37 423.928 2368.02 415.861C2388.68 407.471 2411.42 403.277 2436.27 403.277C2474.99 403.277 2507.1 411.989 2532.59 429.413C2558.08 446.515 2576.96 471.523 2589.22 504.436L2519.04 532.993C2509.68 514.923 2498.39 501.532 2485.16 492.819C2471.93 483.784 2455.63 479.267 2436.27 479.267C2419.17 479.267 2404 483.139 2390.77 490.883C2377.54 498.627 2367.06 509.598 2359.31 523.796C2351.89 537.994 2348.18 554.773 2348.18 574.134C2348.18 593.494 2351.89 610.274 2359.31 624.471C2367.06 638.669 2377.54 649.64 2390.77 657.384C2404 664.806 2419.17 668.517 2436.27 668.517C2455.63 668.517 2471.93 664.161 2485.16 655.448C2498.39 646.736 2509.68 633.345 2519.04 615.275L2589.22 643.832C2576.96 676.745 2558.08 701.914 2532.59 719.338C2507.1 736.44 2474.99 744.991 2436.27 744.991ZM2573.93 574.134C2573.93 548.965 2577.96 526.055 2586.03 505.404C2594.1 484.43 2605.55 466.36 2620.39 451.194C2635.56 435.706 2653.47 423.767 2674.12 415.377C2695.09 406.987 2718 402.793 2742.85 402.793C2767.7 402.793 2790.44 406.987 2811.1 415.377C2832.07 423.767 2850.14 435.706 2865.3 451.194C2880.47 466.36 2892.09 484.43 2900.15 505.404C2908.22 526.055 2912.25 548.965 2912.25 574.134C2912.25 598.98 2908.22 621.89 2900.15 642.864C2892.09 663.838 2880.47 682.069 2865.3 697.558C2850.14 712.723 2832.07 724.501 2811.1 732.891C2790.44 740.958 2767.7 744.991 2742.85 744.991C2718 744.991 2695.09 740.958 2674.12 732.891C2653.47 724.501 2635.56 712.723 2620.39 697.558C2605.55 682.069 2594.1 663.838 2586.03 642.864C2577.96 621.89 2573.93 598.98 2573.93 574.134ZM2653.79 574.134C2653.79 593.494 2657.5 610.274 2664.92 624.471C2672.67 638.346 2683.32 648.995 2696.87 656.416C2710.42 663.838 2725.75 667.549 2742.85 667.549C2760.6 667.549 2776.08 663.838 2789.31 656.416C2802.54 648.995 2813.03 638.185 2820.78 623.987C2828.52 609.79 2832.39 593.01 2832.39 573.65C2832.39 554.289 2828.52 537.671 2820.78 523.796C2813.03 509.921 2802.54 499.273 2789.31 491.851C2776.08 484.107 2760.6 480.235 2742.85 480.235C2725.75 480.235 2710.42 484.107 2696.87 491.851C2683.32 499.273 2672.67 510.083 2664.92 524.28C2657.5 538.155 2653.79 554.773 2653.79 574.134ZM3132.18 738.699L2963.26 505.888L2994.72 497.175V738.699H2916.31V409.085H2988.91L3155.41 639.96L3125.89 646.736V409.085H3204.3V738.699H3132.18ZM3278.95 620.599V544.609H3413.99V620.599H3278.95ZM3303.64 738.699H3225.23V409.085H3437.23V485.075H3274.11L3303.64 450.71V738.699ZM3521.8 738.699H3443.39V409.085H3521.8V738.699ZM3542.45 738.699V409.085H3660.06C3694.91 409.085 3724.76 415.7 3749.6 428.929C3774.45 441.836 3793.49 460.552 3806.72 485.075C3819.95 509.599 3826.56 539.123 3826.56 573.65C3826.56 608.499 3819.79 638.185 3806.23 662.709C3793 687.232 3773.97 706.109 3749.12 719.338C3724.27 732.245 3694.43 738.699 3659.58 738.699H3542.45ZM3620.86 695.138L3588.43 662.709H3654.25C3672.97 662.709 3689.1 659.804 3702.65 653.996C3716.53 647.865 3727.18 638.185 3734.6 624.955C3742.34 611.726 3746.22 594.624 3746.22 573.65C3746.22 552.999 3742.5 536.219 3735.08 523.312C3727.66 510.083 3717.01 500.402 3703.14 494.271C3689.59 488.141 3673.45 485.075 3654.74 485.075H3585.04L3620.86 463.294V695.138ZM3880.9 610.919V536.381H4017.4V610.919H3880.9ZM3879.45 483.623L3908.98 450.71V699.978L3877.03 663.677H4043.53V738.699H3830.57V409.085H4043.53V483.623H3879.45ZM4273.58 738.699L4104.66 505.888L4136.12 497.175V738.699H4057.71V409.085H4130.32L4296.82 639.96L4267.29 646.736V409.085H4345.7V738.699H4273.58ZM4442.14 738.699V441.514H4521.03V738.699H4442.14ZM4346.3 485.075V409.085H4617.84V485.075H4346.3ZM4696.77 738.699H4618.36V409.085H4696.77V738.699ZM4770.21 610.435H4917.35V683.037H4770.21V610.435ZM4694.71 738.699L4811.35 409.085H4894.12L5002.54 738.699H4923.65L4838.46 462.81H4867.02L4773.12 738.699H4694.71ZM5204.11 738.699H4999.86V409.085H5078.27V696.106L5056.49 662.709H5204.11V738.699Z" fill="#1E1014"/>
<path d="M2284.29 1141.3V811.687H2401.91C2436.75 811.687 2466.6 818.302 2491.45 831.532C2516.29 844.439 2535.33 863.154 2548.56 887.677C2561.79 912.201 2568.41 941.726 2568.41 976.252C2568.41 1011.1 2561.63 1040.79 2548.08 1065.31C2534.85 1089.83 2515.81 1108.71 2490.96 1121.94C2466.12 1134.85 2436.27 1141.3 2401.42 1141.3H2284.29ZM2362.7 1097.74L2330.27 1065.31H2396.1C2414.81 1065.31 2430.95 1062.41 2444.5 1056.6C2458.37 1050.47 2469.02 1040.79 2476.44 1027.56C2484.19 1014.33 2488.06 997.226 2488.06 976.252C2488.06 955.601 2484.35 938.822 2476.93 925.914C2469.51 912.685 2458.86 903.004 2444.98 896.874C2431.43 890.743 2415.3 887.677 2396.58 887.677H2326.88L2362.7 865.897V1097.74ZM2622.75 1013.52V938.983H2759.24V1013.52H2622.75ZM2621.3 886.225L2650.82 853.312V1102.58L2618.88 1066.28H2785.38V1141.3H2572.41V811.687H2785.38V886.225H2621.3ZM2875.06 1141.3V844.116H2953.96V1141.3H2875.06ZM2779.23 887.677V811.687H3050.76V887.677H2779.23ZM3057.76 1013.04H3204.91V1085.64H3057.76V1013.04ZM2982.26 1141.3L3098.91 811.687H3181.67L3290.09 1141.3H3211.2L3126.01 865.413H3154.57L3060.67 1141.3H2982.26ZM3365.82 1141.3H3287.41V811.687H3365.82V1141.3ZM3590.72 1141.3H3386.46V811.687H3464.87V1098.71L3443.09 1065.31H3590.72V1141.3ZM3646.46 1013.52V938.983H3782.95V1013.52H3646.46ZM3645.01 886.225L3674.53 853.312V1102.58L3642.59 1066.28H3809.09V1141.3H3596.12V811.687H3809.09V886.225H3645.01ZM3823.27 1141.3V811.687H3945.24C3969.12 811.687 3990.58 816.366 4009.61 825.723C4028.65 834.758 4043.82 848.149 4055.11 865.897C4066.41 883.321 4072.05 904.456 4072.05 929.303C4072.05 954.471 4066.41 975.768 4055.11 993.193C4043.82 1010.62 4028.65 1023.85 4009.61 1032.88C3990.58 1041.92 3969.12 1046.43 3945.24 1046.43H3883.77V970.928H3940.88C3957.34 970.928 3969.93 967.378 3978.64 960.28C3987.67 953.181 3992.19 942.855 3992.19 929.303C3992.19 915.75 3987.67 905.425 3978.64 898.326C3969.93 891.227 3957.34 887.677 3940.88 887.677H3883.29L3901.68 870.737V1141.3H3823.27ZM3989.77 1141.3L3922.01 1008.2H4007.68L4075.44 1141.3H3989.77ZM4192.15 1149.53C4172.47 1149.53 4154.23 1146.63 4137.45 1140.82C4120.68 1135.01 4105.67 1126.46 4092.44 1115.16C4079.53 1103.87 4068.72 1089.67 4060.01 1072.57L4119.55 1034.33C4128.58 1048.21 4139.71 1059.02 4152.94 1066.76C4166.5 1074.18 4181.02 1077.9 4196.5 1077.9C4209.41 1077.9 4219.09 1075.31 4225.55 1070.15C4232 1064.99 4235.23 1058.21 4235.23 1049.82C4235.23 1044.66 4233.77 1039.98 4230.87 1035.79C4227.97 1031.59 4222.48 1027.72 4214.41 1024.17C4206.35 1020.3 4194.89 1016.75 4180.05 1013.52C4152.3 1007.07 4130.36 999.001 4114.22 989.32C4098.09 979.64 4086.63 968.024 4079.86 954.471C4073.08 940.596 4069.69 924.946 4069.69 907.522C4069.69 888.161 4074.53 870.737 4084.21 855.248C4094.22 839.437 4108.41 827.014 4126.81 817.979C4145.52 808.622 4167.46 803.943 4192.63 803.943C4221.35 803.943 4245.71 809.59 4265.72 820.883C4285.72 832.177 4301.37 846.859 4312.67 864.929L4253.13 907.522C4245.07 896.874 4234.9 889.291 4222.64 884.773C4210.7 880.256 4198.92 877.997 4187.31 877.997C4175.37 877.997 4165.85 880.256 4158.75 884.773C4151.98 889.291 4148.59 895.744 4148.59 904.134C4148.59 911.878 4152.14 918.332 4159.24 923.494C4166.66 928.335 4181.02 933.175 4202.31 938.015C4229.42 944.468 4251.36 952.374 4268.14 961.732C4284.92 971.089 4297.18 982.706 4304.92 996.581C4312.99 1010.13 4317.02 1026.75 4317.02 1046.43C4317.02 1066.44 4311.86 1084.19 4301.54 1099.68C4291.53 1115.16 4277.17 1127.43 4258.46 1136.46C4240.07 1145.17 4217.96 1149.53 4192.15 1149.53Z" fill="#FFC906"/>
</svg>
