<svg width="36" height="36" viewBox="0 0 36 36" fill="currentColor" xmlns="http://www.w3.org/2000/svg">
<path d="M26.9662 11.1655C27.1285 10.9207 27.2154 10.6325 27.2154 10.3374C27.2154 9.94172 27.0593 9.56283 26.7826 9.28395C26.506 9.00518 26.1315 8.84911 25.7416 8.84911C25.4507 8.84911 25.1662 8.93601 24.9239 9.09916C24.6816 9.26233 24.4923 9.49458 24.3803 9.76688C24.2684 10.0392 24.2391 10.3391 24.2962 10.6284C24.3533 10.9177 24.4941 11.183 24.7005 11.3909C24.9068 11.5988 25.1693 11.7401 25.4546 11.7973C25.7399 11.8545 26.0356 11.8252 26.3046 11.7129C26.5735 11.6006 26.8039 11.4103 26.9662 11.1655Z" fill="currentColor"/>
<path d="M21.5402 8.84911C21.2494 8.84911 20.9648 8.93601 20.7226 9.09916C20.4802 9.26233 20.2909 9.49458 20.179 9.76688C20.0671 10.0392 20.0377 10.3391 20.0948 10.6284C20.1519 10.9177 20.2928 11.183 20.4991 11.3909C20.7054 11.5988 20.9679 11.7401 21.2532 11.7973C21.5385 11.8545 21.8343 11.8252 22.1032 11.7129C22.3722 11.6006 22.6025 11.4103 22.7648 11.1655C22.9272 10.9207 23.014 10.6325 23.014 10.3374C23.014 9.94172 22.858 9.56283 22.5813 9.28395C22.3047 9.00518 21.9301 8.84911 21.5402 8.84911Z" fill="currentColor"/>
<path d="M29.9429 8.84911C29.6521 8.84911 29.3675 8.93601 29.1253 9.09916C28.8829 9.26233 28.6936 9.49458 28.5817 9.76688C28.4698 10.0392 28.4404 10.3391 28.4975 10.6284C28.5546 10.9177 28.6955 11.183 28.9018 11.3909C29.1081 11.5988 29.3706 11.7401 29.6559 11.7973C29.9412 11.8545 30.237 11.8252 30.5059 11.7129C30.7749 11.6006 31.0053 11.4103 31.1676 11.1655C31.3299 10.9207 31.4167 10.6325 31.4167 10.3374C31.4167 9.94172 31.2607 9.56283 30.984 9.28395C30.7074 9.00518 30.3328 8.84911 29.9429 8.84911Z" fill="currentColor"/>
<path fill-rule="evenodd" clip-rule="evenodd" d="M36 10.3374C36.0004 12.1234 35.5419 13.8789 34.6695 15.4331C33.797 16.9872 32.5404 18.2868 31.0222 19.2058C29.5041 20.1247 27.7759 20.6317 26.006 20.6777C24.2829 20.7225 22.5771 20.3289 21.0459 19.5342L17.9259 20.5823C17.5993 20.692 17.249 20.7079 16.914 20.6283C16.5791 20.5486 16.2724 20.3764 16.0285 20.1306C15.7846 19.8848 15.6131 19.575 15.5337 19.2359C15.4542 18.8967 15.4701 18.542 15.5795 18.2115L16.6184 15.0704C15.9282 13.7172 15.5424 12.2264 15.4894 10.7043C15.4347 9.13387 15.7358 7.57161 16.3696 6.13614C17.0034 4.70069 17.9533 3.4299 19.1468 2.42008C20.3404 1.41027 21.7463 0.687939 23.2578 0.307697C24.7693 -0.0725431 26.3468 -0.100752 27.8707 0.225202C29.3947 0.551156 30.8251 1.22275 32.0534 2.18922C33.2817 3.1557 34.2757 4.39169 34.9596 5.80354C35.6435 7.2154 35.9994 8.76596 36 10.3374ZM18.8914 14.8514C18.8758 14.6955 18.8275 14.5448 18.7499 14.4093C18.1303 13.3291 17.7658 12.1199 17.6843 10.8752C17.6028 9.63061 17.8065 8.38371 18.2798 7.23094C18.753 6.07816 19.4832 5.05027 20.414 4.22694C21.3448 3.4036 22.4514 2.80692 23.648 2.48329C24.8447 2.15965 26.0993 2.1178 27.3146 2.36099C28.53 2.60417 29.6733 3.12584 30.6562 3.8854C31.6391 4.64496 32.4351 5.62202 32.983 6.7408C33.5309 7.85958 33.8159 9.09021 33.8163 10.3375C33.8166 11.7657 33.4437 13.1689 32.7349 14.406C32.0261 15.6432 31.0062 16.6707 29.7776 17.385C28.549 18.0993 27.1552 18.475 25.7365 18.4741C24.3178 18.4732 22.9246 18.0958 21.697 17.3801C21.5312 17.2832 21.3426 17.2321 21.1514 17.2318C21.034 17.2318 20.9174 17.2512 20.8061 17.2893L20.805 17.2897L17.8589 18.2797L18.8404 15.3131C18.8896 15.1647 18.907 15.0073 18.8914 14.8514Z" fill="currentColor"/>
<path fill-rule="evenodd" clip-rule="evenodd" d="M27.6642 26.4015L20.8183 23.3099L20.7994 23.3011C20.444 23.1479 20.0563 23.0864 19.6714 23.1222C19.2865 23.158 18.9165 23.29 18.5949 23.5061C18.5571 23.5313 18.5207 23.5587 18.4859 23.5882L14.9489 26.627C12.7081 25.5301 10.3946 23.2162 9.30619 20.9872L12.3259 17.3683C12.355 17.3317 12.3826 17.2951 12.4087 17.2556C12.6186 16.9323 12.746 16.5618 12.7794 16.177C12.8129 15.7922 12.7514 15.4051 12.6006 15.05V15.0324L9.52417 8.12132C9.3247 7.65746 8.98173 7.27104 8.54645 7.01976C8.11116 6.76849 7.60691 6.66582 7.10898 6.7271C5.13987 6.98823 3.33242 7.96282 2.0242 9.46882C0.715977 10.9748 -0.00354712 12.9093 1.31493e-05 14.9109C1.31493e-05 26.5392 9.38757 36 20.9258 36C22.9119 36.0036 24.8314 35.2784 26.3257 33.96C27.8201 32.6416 28.7871 30.82 29.0462 28.8355C29.1071 28.3339 29.0055 27.8258 28.7564 27.3872C28.5073 26.9485 28.1242 26.6028 27.6642 26.4015ZM20.9258 33.6568C15.9943 33.6513 11.2662 31.6746 7.77908 28.1602C4.29193 24.6458 2.33049 19.8809 2.3251 14.9109C2.31964 13.4807 2.83089 12.0975 3.76337 11.0195C4.69586 9.94146 5.98582 9.24237 7.39235 9.05276C7.39178 9.0586 7.39178 9.06449 7.39235 9.07033L10.444 15.9536L7.4403 19.5768C7.40982 19.6122 7.38212 19.6499 7.35747 19.6896C7.13879 20.0278 7.0105 20.4172 6.98504 20.82C6.95958 21.2228 7.03781 21.6255 7.21215 21.9889C8.52874 24.7027 11.2418 27.4164 13.9636 28.7418C14.3269 28.9159 14.7287 28.992 15.1299 28.9627C15.531 28.9335 15.9178 28.7998 16.2524 28.5749C16.2897 28.5495 16.3256 28.5221 16.3599 28.4928L19.8926 25.4554L26.7226 28.5382H26.7386C26.5527 29.9578 25.8601 31.2604 24.7902 32.2025C23.7203 33.1446 22.3465 33.6616 20.9258 33.6568Z" fill="currentColor"/>
</svg>
